<svg width="171" height="128" viewBox="0 0 171 128" fill="none" xmlns="http://www.w3.org/2000/svg">
<path d="M112.325 80.6004V70.9236H109.558C104.713 62.8779 94.0084 57.2861 81.5855 57.2861C69.1625 57.2861 58.4553 62.8779 53.6095 70.9236H50.8427V80.6004C50.8427 93.48 64.6062 103.918 81.5855 103.918C98.5647 103.918 112.325 93.4948 112.325 80.6004Z" fill="#DF8D12"/>
<path d="M112.325 80.6004V70.9236H109.558C104.713 62.8779 94.0084 57.2861 81.5855 57.2861C69.1625 57.2861 58.4553 62.8779 53.6095 70.9236H50.8427V80.6004C50.8427 93.48 64.6062 103.918 81.5855 103.918C98.5647 103.918 112.325 93.4948 112.325 80.6004Z" fill="url(#paint0_linear_97_459)"/>
<path d="M59.9258 80.6004V70.9236H62.6927C66.939 63.8755 75.6855 58.7129 86.127 57.5378C84.619 57.3697 83.1028 57.2857 81.5855 57.2861C69.1596 57.2861 58.4553 62.8779 53.6095 70.9236H50.8427V80.6004C50.8427 93.48 64.6062 103.918 81.5855 103.918C83.1029 103.919 84.6192 103.834 86.127 103.663C71.3005 101.999 59.9258 92.3108 59.9258 80.6004Z" fill="#B76E00"/>
<path d="M81.5855 94.2408C98.5642 94.2408 112.328 83.8014 112.328 70.9236C112.328 58.0459 98.5642 47.6064 81.5855 47.6064C64.6067 47.6064 50.8427 58.0459 50.8427 70.9236C50.8427 83.8014 64.6067 94.2408 81.5855 94.2408Z" fill="#955100"/>
<path d="M81.5854 87.7966C93.8722 87.7966 103.833 80.2423 103.833 70.9237C103.833 61.605 93.8722 54.0508 81.5854 54.0508C69.2986 54.0508 59.3381 61.605 59.3381 70.9237C59.3381 80.2423 69.2986 87.7966 81.5854 87.7966Z" fill="#EF8521"/>
<path d="M65.8648 73.8474C65.8648 64.4489 72.9518 56.5305 82.602 54.0676C82.2653 54.0676 81.9257 54.0469 81.5862 54.0469C69.2961 54.0469 59.3359 61.6012 59.3359 70.9198C59.3359 76.9171 63.47 82.1684 69.6711 85.173C67.2138 81.9098 65.8782 77.9359 65.8648 73.8474Z" fill="#E86124"/>
<path d="M109.079 66.5896V56.9099H106.313C101.464 48.8642 90.7626 43.2725 78.3367 43.2725C65.9108 43.2725 55.2094 48.8642 50.3608 56.9099H47.5939V66.5896C47.5939 79.4663 61.3574 89.9068 78.3367 89.9068C95.3159 89.9068 109.079 79.4663 109.079 66.5896Z" fill="#DF8D12"/>
<path d="M109.079 66.5896V56.9099H106.313C101.464 48.8642 90.7626 43.2725 78.3367 43.2725C65.9108 43.2725 55.2094 48.8642 50.3608 56.9099H47.5939V66.5896C47.5939 79.4663 61.3574 89.9068 78.3367 89.9068C95.3159 89.9068 109.079 79.4663 109.079 66.5896Z" fill="url(#paint1_linear_97_459)"/>
<path d="M56.68 66.5896V56.9099H59.4469C63.6902 49.8647 72.4397 44.7022 82.8783 43.527C81.3703 43.3579 79.8541 43.2729 78.3367 43.2725C65.9108 43.2725 55.2094 48.8642 50.3608 56.9099H47.5939V66.5896C47.5939 79.4663 61.3574 89.9068 78.3367 89.9068C79.8541 89.9064 81.3703 89.8214 82.8783 89.6522C68.0546 87.9886 56.68 78.2971 56.68 66.5896Z" fill="#B76E00"/>
<path d="M78.3367 80.2271C95.3155 80.2271 109.079 69.7877 109.079 56.9099C109.079 44.0322 95.3155 33.5928 78.3367 33.5928C61.3579 33.5928 47.5939 44.0322 47.5939 56.9099C47.5939 69.7877 61.3579 80.2271 78.3367 80.2271Z" fill="#955100"/>
<path d="M78.3366 73.7829C90.6234 73.7829 100.584 66.2287 100.584 56.91C100.584 47.5914 90.6234 40.0371 78.3366 40.0371C66.0498 40.0371 56.0894 47.5914 56.0894 56.91C56.0894 66.2287 66.0498 73.7829 78.3366 73.7829Z" fill="#EF8521"/>
<path d="M62.6183 59.8376C62.6183 50.4391 69.7053 42.5207 79.3554 40.0578C79.0158 40.0578 78.6792 40.0371 78.3366 40.0371C66.0495 40.0371 56.0894 47.5914 56.0894 56.91C56.0894 62.9073 60.2234 68.1586 66.4246 71.1632C63.9651 67.9012 62.6293 63.9265 62.6183 59.8376V59.8376Z" fill="#E86124"/>
<path d="M112.325 52.4461V42.7664H109.558C104.713 34.7207 94.0084 29.1289 81.5855 29.1289C69.1625 29.1289 58.4553 34.7207 53.6095 42.7664H50.8427V52.4461C50.8427 65.3228 64.6062 75.7603 81.5855 75.7603C98.5647 75.7603 112.325 65.3228 112.325 52.4461Z" fill="#DF8D12"/>
<path d="M112.325 52.4461V42.7664H109.558C104.713 34.7207 94.0084 29.1289 81.5855 29.1289C69.1625 29.1289 58.4553 34.7207 53.6095 42.7664H50.8427V52.4461C50.8427 65.3228 64.6062 75.7603 81.5855 75.7603C98.5647 75.7603 112.325 65.3228 112.325 52.4461Z" fill="url(#paint2_linear_97_459)"/>
<path d="M59.9258 52.4461V42.7664H62.6927C66.939 35.7182 75.6855 30.5557 86.127 29.3835C84.6192 29.2129 83.1029 29.1279 81.5855 29.1289C69.1596 29.1289 58.4553 34.7207 53.6095 42.7664H50.8427V52.4461C50.8427 65.3228 64.6062 75.7603 81.5855 75.7603C83.1028 75.7608 84.619 75.6768 86.127 75.5087C71.3005 73.8421 59.9258 64.1506 59.9258 52.4461Z" fill="#B76E00"/>
<path d="M81.5855 66.0836C98.5642 66.0836 112.328 55.6441 112.328 42.7664C112.328 29.8887 98.5642 19.4492 81.5855 19.4492C64.6067 19.4492 50.8427 29.8887 50.8427 42.7664C50.8427 55.6441 64.6067 66.0836 81.5855 66.0836Z" fill="#955100"/>
<path d="M81.5854 59.6394C93.8722 59.6394 103.833 52.0851 103.833 42.7665C103.833 33.4478 93.8722 25.8936 81.5854 25.8936C69.2986 25.8936 59.3381 33.4478 59.3381 42.7665C59.3381 52.0851 69.2986 59.6394 81.5854 59.6394Z" fill="#EF8521"/>
<path d="M65.8648 45.6911C65.8648 36.2956 72.9518 28.3742 82.602 25.9113C82.2653 25.9113 81.9257 25.8936 81.5862 25.8936C69.2961 25.8936 59.3359 33.4479 59.3359 42.7665C59.3359 48.7638 63.47 54.0151 69.6711 57.0196C67.2132 53.7557 65.8776 49.7806 65.8648 45.6911V45.6911Z" fill="#E86124"/>
<path d="M109.079 38.4353V28.7556H106.313C101.464 20.7099 90.7626 15.1182 78.3367 15.1182C65.9108 15.1182 55.2094 20.7099 50.3608 28.7556H47.5939V38.4353C47.5939 51.312 61.3574 61.7496 78.3367 61.7496C95.3159 61.7496 109.079 51.312 109.079 38.4353Z" fill="#DF8D12"/>
<path d="M109.079 38.4353V28.7556H106.313C101.464 20.7099 90.7626 15.1182 78.3367 15.1182C65.9108 15.1182 55.2094 20.7099 50.3608 28.7556H47.5939V38.4353C47.5939 51.312 61.3574 61.7496 78.3367 61.7496C95.3159 61.7496 109.079 51.312 109.079 38.4353Z" fill="url(#paint3_linear_97_459)"/>
<path d="M56.68 38.4354V28.7556H59.4469C63.6902 21.7075 72.4397 16.545 82.8783 15.3698C81.3702 15.2016 79.854 15.1176 78.3367 15.1182C65.9108 15.1182 55.2094 20.7099 50.3608 28.7556H47.5939V38.4354C47.5939 51.312 61.3574 61.7496 78.3367 61.7496C79.8541 61.7506 81.3704 61.6656 82.8783 61.495C68.0546 59.8314 56.68 50.1398 56.68 38.4354Z" fill="#B76E00"/>
<path d="M56.68 38.4354V28.7556H59.4469C63.6902 21.7075 72.4397 16.545 82.8783 15.3698C81.3702 15.2016 79.854 15.1176 78.3367 15.1182C65.9108 15.1182 55.2094 20.7099 50.3608 28.7556H47.5939V38.4354C47.5939 51.312 61.3574 61.7496 78.3367 61.7496C79.8541 61.7506 81.3704 61.6656 82.8783 61.495C68.0546 59.8314 56.68 50.1398 56.68 38.4354Z" fill="url(#paint4_linear_97_459)"/>
<path d="M78.3367 52.0728C95.3155 52.0728 109.079 41.6334 109.079 28.7556C109.079 15.8779 95.3155 5.43848 78.3367 5.43848C61.3579 5.43848 47.5939 15.8779 47.5939 28.7556C47.5939 41.6334 61.3579 52.0728 78.3367 52.0728Z" fill="#955100"/>
<path d="M78.3366 45.6286C90.6234 45.6286 100.584 38.0744 100.584 28.7557C100.584 19.4371 90.6234 11.8828 78.3366 11.8828C66.0498 11.8828 56.0894 19.4371 56.0894 28.7557C56.0894 38.0744 66.0498 45.6286 78.3366 45.6286Z" fill="#EF8521"/>
<path d="M62.6183 31.6804C62.6183 22.2819 69.7053 14.3635 79.3554 11.9006C79.0158 11.9006 78.6792 11.8799 78.3366 11.8799C66.0495 11.8799 56.0894 19.4342 56.0894 28.7528C56.0894 34.7501 60.2234 40.0014 66.4246 43.006C63.9661 39.7435 62.6304 35.7691 62.6183 31.6804V31.6804Z" fill="#DF8D12"/>
<path d="M165.318 85.0672V75.3875H162.551C157.702 67.3417 147.001 61.75 134.575 61.75C122.149 61.75 111.445 67.3417 106.599 75.3875H103.832V85.0672C103.832 97.9439 117.596 108.384 134.575 108.384C151.554 108.384 165.318 97.935 165.318 85.0672Z" fill="#DF8D12"/>
<path d="M165.318 85.0672V75.3875H162.551C157.702 67.3417 147.001 61.75 134.575 61.75C122.149 61.75 111.445 67.3417 106.599 75.3875H103.832V85.0672C103.832 97.9439 117.596 108.384 134.575 108.384C151.554 108.384 165.318 97.935 165.318 85.0672Z" fill="url(#paint5_linear_97_459)"/>
<path d="M112.915 85.0672V75.3875H115.682C119.929 68.3423 128.675 63.1768 139.117 62.0046C137.609 61.834 136.092 61.749 134.575 61.75C122.149 61.75 111.445 67.3418 106.599 75.3875H103.832V85.0672C103.832 97.9439 117.596 108.384 134.575 108.384C136.092 108.384 137.609 108.299 139.117 108.13C124.293 106.463 112.915 96.7746 112.915 85.0672Z" fill="url(#paint6_linear_97_459)"/>
<path d="M134.575 98.7047C151.554 98.7047 165.318 88.2652 165.318 75.3875C165.318 62.5098 151.554 52.0703 134.575 52.0703C117.596 52.0703 103.832 62.5098 103.832 75.3875C103.832 88.2652 117.596 98.7047 134.575 98.7047Z" fill="#955100"/>
<path d="M134.576 92.2605C146.863 92.2605 156.823 84.7062 156.823 75.3876C156.823 66.0689 146.863 58.5146 134.576 58.5146C122.289 58.5146 112.329 66.0689 112.329 75.3876C112.329 84.7062 122.289 92.2605 134.576 92.2605Z" fill="#955100"/>
<path d="M118.855 78.3122C118.855 68.9167 125.942 60.9953 135.592 58.5324C135.255 58.5324 134.915 58.5146 134.576 58.5146C122.289 58.5146 112.326 66.069 112.326 75.3876C112.326 81.3848 116.46 86.6362 122.661 89.6407C120.203 86.377 118.867 82.4018 118.855 78.3122Z" fill="#E86124"/>
<path d="M160.626 68.9461V59.2664H157.859C153.013 51.2207 142.309 45.6289 129.883 45.6289C117.457 45.6289 106.756 51.2207 101.91 59.2664H99.1434V68.9461C99.1434 81.8228 112.907 92.2603 129.883 92.2603C146.86 92.2603 160.626 81.8228 160.626 68.9461Z" fill="#DF8D12"/>
<path d="M160.626 68.9461V59.2664H157.859C153.013 51.2207 142.309 45.6289 129.883 45.6289C117.457 45.6289 106.756 51.2207 101.91 59.2664H99.1434V68.9461C99.1434 81.8228 112.907 92.2603 129.883 92.2603C146.86 92.2603 160.626 81.8228 160.626 68.9461Z" fill="url(#paint7_linear_97_459)"/>
<path d="M108.227 68.9461V59.2664H110.985C115.231 52.2182 123.977 47.0557 134.419 45.8805C132.913 45.7127 131.399 45.6287 129.883 45.6289C117.46 45.6289 106.756 51.2207 101.91 59.2664H99.1434V68.9461C99.1434 81.8228 112.907 92.2603 129.883 92.2603C131.402 92.2609 132.919 92.1768 134.428 92.0087C119.601 90.3421 108.227 80.6506 108.227 68.9461Z" fill="url(#paint8_linear_97_459)"/>
<path d="M129.883 82.5836C146.862 82.5836 160.626 72.1441 160.626 59.2664C160.626 46.3887 146.862 35.9492 129.883 35.9492C112.904 35.9492 99.1403 46.3887 99.1403 59.2664C99.1403 72.1441 112.904 82.5836 129.883 82.5836Z" fill="#955100"/>
<path d="M129.883 76.1394C142.17 76.1394 152.13 68.5851 152.13 59.2665C152.13 49.9478 142.17 42.3936 129.883 42.3936C117.596 42.3936 107.636 49.9478 107.636 59.2665C107.636 68.5851 117.596 76.1394 129.883 76.1394Z" fill="#EF8521"/>
<path d="M114.165 62.1911C114.165 52.7956 121.252 44.8742 130.902 42.4113C130.565 42.3995 130.226 42.3936 129.883 42.3936C117.596 42.3936 107.636 49.9479 107.636 59.2665C107.636 65.2638 111.77 70.5151 117.971 73.5196C115.513 70.2557 114.177 66.2806 114.165 62.1911V62.1911Z" fill="#E86124"/>
<path d="M71.6876 66.8203L64.4914 60.3672L62.6458 62.4393C53.4327 60.6958 42.1407 64.9673 33.8578 74.2503C25.5749 83.5334 22.5954 95.2704 25.3505 104.243L23.5049 106.315L30.7011 112.768C40.2774 121.352 57.2154 118.028 68.5339 105.341C79.8524 92.6536 81.2639 75.4048 71.6876 66.8203Z" fill="url(#paint9_linear_97_459)"/>
<path d="M36.7544 105.975L29.5581 99.5219L31.4037 97.4498C28.9941 89.5787 30.9785 79.6089 37.0733 71.0186C35.9414 72.0354 34.8678 73.1156 33.8576 74.254C25.5894 83.54 22.5952 95.2711 25.3473 104.249L23.5017 106.321L30.698 112.775C40.2743 121.359 57.2122 118.035 68.5307 105.348C69.5426 104.218 70.49 103.032 71.3685 101.795C60.2478 111.738 45.4596 113.781 36.7544 105.975Z" fill="#B76E00"/>
<path d="M36.7544 105.975L29.5581 99.5219L31.4037 97.4498C28.9941 89.5787 30.9785 79.6089 37.0733 71.0186C35.9414 72.0354 34.8678 73.1156 33.8576 74.254C25.5894 83.54 22.5952 95.2711 25.3473 104.249L23.5017 106.321L30.698 112.775C40.2743 121.359 57.2122 118.035 68.5307 105.348C69.5426 104.218 70.49 103.032 71.3685 101.795C60.2478 111.738 45.4596 113.781 36.7544 105.975Z" fill="url(#paint10_linear_97_459)"/>
<path d="M61.3314 98.8843C72.6505 86.198 74.0644 68.9541 64.4893 60.369C54.9143 51.7839 37.9762 55.1086 26.6571 67.795C15.3379 80.4813 13.9241 97.7252 23.4991 106.31C33.0742 114.895 50.0123 111.571 61.3314 98.8843Z" fill="#955100"/>
<path d="M56.5403 94.589C64.7315 85.4085 65.7549 72.93 58.8261 66.7176C51.8974 60.5052 39.6403 62.9114 31.4491 72.092C23.2579 81.2725 22.2345 93.751 29.1633 99.9634C36.092 106.176 48.3491 103.77 56.5403 94.589Z" fill="#EF8521"/>
<path d="M35.685 97.0467C28.6984 90.783 27.5261 80.2152 32.1415 71.3555C31.9072 71.5982 31.6769 71.8468 31.4505 72.1014C23.2591 81.2779 22.2345 93.7609 29.1649 99.9743C33.6238 103.973 40.2915 104.397 46.661 101.75C42.5903 101.417 38.7381 99.7661 35.685 97.0467Z" fill="#E86124"/>
<g clip-path="url(#clip0_97_459)">
<path d="M21.4152 101.437C27.7704 112.231 42.9991 113.344 55.4073 103.997C67.8156 94.6507 72.7791 78.3284 66.4239 67.5345C60.0687 56.7406 44.84 55.6281 32.4318 64.9745C20.0235 74.321 15.0601 90.6432 21.4152 101.437Z" fill="#A56402" stroke="#955100" stroke-width="2"/>
<path d="M21.5003 99.2174C27.8555 110.011 43.0842 111.124 55.4924 101.777C67.9006 92.431 72.8641 76.1087 66.509 65.3148C60.1538 54.5209 44.9251 53.4084 32.5169 62.7548C20.1086 72.1013 15.1452 88.4235 21.5003 99.2174Z" fill="url(#paint11_linear_97_459)" stroke="#955100" stroke-width="2"/>
<path d="M25.592 96.1352C30.76 104.913 43.1949 105.759 53.3385 98.1189C63.482 90.4783 67.5853 77.1744 62.4172 68.3967C57.2492 59.6191 44.8143 58.7725 34.6708 66.413C24.5272 74.0536 20.4239 87.3575 25.592 96.1352Z" fill="#FFCF23"/>
<path d="M25.592 96.1352C30.76 104.913 43.1949 105.759 53.3385 98.1189C63.482 90.4783 67.5853 77.1744 62.4172 68.3967C57.2492 59.6191 44.8143 58.7725 34.6708 66.413C24.5272 74.0536 20.4239 87.3575 25.592 96.1352Z" fill="url(#paint12_linear_97_459)"/>
<path d="M25.592 96.1352C30.76 104.913 43.1949 105.759 53.3385 98.1189C63.482 90.4783 67.5853 77.1744 62.4172 68.3967C57.2492 59.6191 44.8143 58.7725 34.6708 66.413C24.5272 74.0536 20.4239 87.3575 25.592 96.1352Z" stroke="#DF8D12" stroke-width="2"/>
<path fill-rule="evenodd" clip-rule="evenodd" d="M63.7933 79.086C63.741 76.2318 63.0492 73.5064 61.6502 71.1303C56.6935 62.7117 44.7371 61.8666 34.9446 69.2427C28.6256 74.0024 24.7519 81.0225 24.1308 87.6657C23.9978 80.4075 28.0012 72.3169 35.0297 67.0227C44.8222 59.6466 56.7786 60.4917 61.7352 68.9103C63.4934 71.8964 64.1347 75.4343 63.7933 79.086Z" fill="#FFDD65"/>
<path d="M47.9524 63.9119C47.9524 63.9119 45.251 63.8518 42.5071 64.9017" stroke="white" stroke-linecap="round" stroke-linejoin="round"/>
<path d="M35.8597 78.7011C39.1933 81.6062 38.7683 85.9564 35.1637 90.1228C33.7113 91.8952 35.9366 94.4333 37.492 92.735C41.0966 88.5686 46.1321 87.6531 49.4656 90.5581C50.1661 91.1686 51.372 90.4831 51.6508 90.1608C52.2777 89.4362 53.3523 88.1941 52.0441 87.0541C48.7107 84.1492 48.5994 79.8964 52.2038 75.7302C52.8307 75.0056 53.1769 73.1296 52.5971 72.6243C52.0174 72.1191 50.7307 73.1757 50.1039 73.9002C46.4995 78.0664 40.6834 78.3016 37.3498 75.3965C35.914 74.2464 34.5196 77.4259 35.8597 78.7011ZM46.7842 79.8658C46.2023 81.8816 46.1252 83.8932 46.5597 85.7242C44.6923 85.5491 42.7187 85.908 40.8118 86.7691C41.3937 84.7533 41.4708 82.7417 41.0361 80.9106C42.9035 81.0857 44.8772 80.7269 46.7842 79.8658Z" fill="#FFDD65"/>
<g filter="url(#filter0_i_97_459)">
<path d="M35.9023 77.5915C39.2359 80.4966 39.0392 85.629 35.4347 89.7954C33.9823 91.5678 35.9792 93.3237 37.5346 91.6254C41.1391 87.459 46.1747 86.5435 49.5081 89.4485C50.0879 89.9537 51.0665 89.7758 51.6933 89.0512C52.3202 88.3266 52.3585 87.3292 51.7787 86.824C48.4453 83.919 48.642 78.7868 52.2464 74.6206C52.8732 73.896 52.9115 72.8986 52.3317 72.3934C51.752 71.8881 50.7733 72.0661 50.1465 72.7906C46.5421 76.9568 41.5065 77.8721 38.1729 74.967C36.737 73.817 34.5622 76.3163 35.9023 77.5915ZM46.8268 78.7562C46.2448 80.772 46.1677 82.7836 46.6023 84.6146C44.7348 84.4394 42.7613 84.7984 40.8544 85.6595C41.4363 83.6437 41.5134 81.6321 41.0787 79.801C42.9461 79.9761 44.9198 79.6173 46.8268 78.7562Z" fill="#DF8D12"/>
</g>
<path d="M46.2947 88.9265C46.2947 88.9265 43.8974 87.9845 40.8494 89.9164" stroke="white" stroke-linecap="round" stroke-linejoin="round"/>
<path d="M53.3691 107.642C53.3691 107.642 61.4617 104.258 68.2056 91.3978" stroke="white" stroke-linecap="round" stroke-linejoin="round"/>
</g>
<g clip-path="url(#clip1_97_459)">
<path d="M49.4764 25.4108C46.0208 37.6096 55.8214 49.5902 71.2965 52.2064C86.7715 54.8226 102.154 47.0993 105.609 34.9006C109.065 22.7018 99.2644 10.7211 83.7894 8.10497C68.3143 5.48878 52.9321 13.2121 49.4764 25.4108Z" fill="#A56402" stroke="#955100" stroke-width="2"/>
<path d="M51.1574 23.9264C47.7018 36.1252 57.5024 48.1059 72.9775 50.722C88.4525 53.3382 103.835 45.6149 107.29 33.4162C110.746 21.2174 100.945 9.23683 85.4704 6.6206C69.9953 4.0044 54.6131 11.7277 51.1574 23.9264Z" fill="url(#paint13_linear_97_459)" stroke="#955100" stroke-width="2"/>
<path d="M56.2604 24.7885C53.4503 34.7086 61.4981 44.4482 74.1487 46.5869C86.7993 48.7256 99.3773 42.473 102.187 32.5529C104.998 22.6328 96.9498 12.8932 84.2992 10.7545C71.6486 8.61578 59.0706 14.8684 56.2604 24.7885Z" fill="url(#paint14_linear_97_459)" stroke="#DF8D12" stroke-width="2"/>
<path fill-rule="evenodd" clip-rule="evenodd" d="M95.338 41.0154C97.3865 38.9878 98.8952 36.5793 99.6559 33.894C102.351 24.3797 94.6357 14.9931 82.423 12.9285C74.5422 11.5961 66.7145 13.6383 61.4288 17.8111C66.6381 12.6549 75.3382 9.96194 84.1039 11.4439C96.3167 13.5086 104.032 22.8952 101.337 32.4094C100.381 35.7842 98.2435 38.7217 95.338 41.0154Z" fill="#FFDD65"/>
<path d="M95.3822 18.7846C95.3822 18.7846 93.5434 16.7551 90.8642 15.4678" stroke="white" stroke-linecap="round" stroke-linejoin="round"/>
<path d="M76.151 20.1942C76.3522 24.6717 72.8782 27.3907 67.3226 27.6421C65.0157 27.8087 64.7125 31.2149 67.0371 31.1757C72.5927 30.9243 76.7709 33.9915 76.972 38.4688C77.0143 39.4097 78.3555 39.8193 78.7851 39.7998C79.7513 39.7561 81.4076 39.6811 81.3287 37.9241C81.1275 33.4469 84.1565 30.401 89.7119 30.1496C90.678 30.1059 92.2897 29.0532 92.2547 28.2744C92.2198 27.4958 90.5513 27.2854 89.5852 27.3291C84.0298 27.5805 79.8047 23.465 79.6035 18.9875C79.4429 17.1295 76.1486 18.3194 76.151 20.1942ZM82.9138 29.0441C81.0357 30.0208 79.5126 31.366 78.4779 32.9618C77.3044 31.4657 75.6668 30.2637 73.7087 29.4607C75.5868 28.484 77.11 27.1388 78.1446 25.5428C79.3182 27.0389 80.9558 28.2411 82.9138 29.0441Z" fill="#FFDD65"/>
<g filter="url(#filter1_i_97_459)">
<path d="M76.9915 19.452C77.1927 23.9295 73.3065 27.3617 67.7509 27.6131C65.444 27.7797 65.553 30.4728 67.8776 30.4336C73.4332 30.1822 77.6114 33.2493 77.8125 37.7266C77.8475 38.5053 78.6595 39.1014 79.6256 39.0577C80.5919 39.0139 81.3471 38.3469 81.3121 37.5683C81.111 33.091 84.997 29.6589 90.5524 29.4075C91.5185 29.3637 92.2738 28.6967 92.2388 27.918C92.2038 27.1394 91.3918 26.5433 90.4257 26.587C84.8703 26.8384 80.6923 23.7712 80.4911 19.2936C80.3305 17.4356 76.9891 17.5772 76.9915 19.452ZM83.7543 28.302C81.8763 29.2786 80.3531 30.6238 79.3184 32.2196C78.1449 30.7235 76.5073 29.5216 74.5492 28.7185C76.4273 27.7419 77.9505 26.3966 78.9851 24.8006C80.1587 26.2967 81.7963 27.4989 83.7543 28.302Z" fill="#DF8D12"/>
</g>
<path d="M75.9544 34.9975C75.9544 34.9975 74.9718 32.5771 71.4363 31.6807" stroke="white" stroke-linecap="round" stroke-linejoin="round"/>
<path d="M71.5777 54.1718C71.5777 54.1718 81.0191 56.8792 94.5069 50.7876" stroke="white" stroke-linecap="round" stroke-linejoin="round"/>
</g>
<path d="M74.9496 66.2392C74.9496 66.2392 84.3911 68.9465 97.8788 62.855" stroke="white" stroke-linecap="round" stroke-linejoin="round"/>
<g clip-path="url(#clip2_97_459)">
<path d="M101.262 54.9314C97.8149 66.8168 107.549 78.4776 122.934 81.0116C138.319 83.5457 153.621 76.0087 157.068 64.1233C160.515 52.2379 150.781 40.5771 135.396 38.043C120.011 35.509 104.709 43.046 101.262 54.9314Z" fill="#A56402" stroke="#955100" stroke-width="2"/>
<path d="M102.935 53.4841C99.4876 65.3695 109.222 77.0303 124.607 79.5644C139.991 82.0985 155.293 74.5614 158.74 62.676C162.188 50.7906 152.454 39.1299 137.069 36.5958C121.684 34.0617 106.382 41.5987 102.935 53.4841Z" fill="url(#paint15_linear_97_459)" stroke="#955100" stroke-width="2"/>
<path d="M108.008 54.3197C105.205 63.985 113.198 73.4645 125.775 75.5361C138.352 77.6076 150.864 71.5057 153.667 61.8404C156.47 52.1751 148.477 42.6956 135.9 40.624C123.324 38.5525 110.811 44.6544 108.008 54.3197Z" fill="#FFCF23"/>
<path d="M108.008 54.3197C105.205 63.985 113.198 73.4645 125.775 75.5361C138.352 77.6076 150.864 71.5057 153.667 61.8404C156.47 52.1751 148.477 42.6956 135.9 40.624C123.324 38.5525 110.811 44.6544 108.008 54.3197Z" fill="url(#paint16_linear_97_459)"/>
<path d="M108.008 54.3197C105.205 63.985 113.198 73.4645 125.775 75.5361C138.352 77.6076 150.864 71.5057 153.667 61.8404C156.47 52.1751 148.477 42.6956 135.9 40.624C123.324 38.5525 110.811 44.6544 108.008 54.3197Z" stroke="#DF8D12" stroke-width="2"/>
<path fill-rule="evenodd" clip-rule="evenodd" d="M146.849 70.0896C148.888 68.1127 150.39 65.7653 151.149 63.149C153.837 53.8791 146.174 44.7432 134.033 42.7433C126.198 41.4527 118.413 43.4491 113.153 47.5186C118.338 42.4913 126.991 39.8602 135.706 41.2957C147.847 43.2956 155.51 52.4315 152.822 61.7014C151.868 64.9895 149.74 67.8527 146.849 70.0896Z" fill="#FFDD65"/>
<path d="M146.913 48.4351C146.913 48.4351 145.087 46.4602 142.424 45.2089" stroke="white" stroke-linecap="round" stroke-linejoin="round"/>
<path d="M127.79 49.8259C127.986 54.1871 124.529 56.8387 119.005 57.0887C116.711 57.2531 116.406 60.5713 118.718 60.5309C124.242 60.2809 128.394 63.2647 128.59 67.6256C128.631 68.5421 129.964 68.9398 130.391 68.9204C131.352 68.877 132.999 68.8024 132.922 67.0911C132.726 62.7302 135.741 59.7606 141.265 59.5106C142.225 59.4671 143.829 58.4402 143.795 57.6817C143.761 56.9233 142.102 56.72 141.141 56.7634C135.617 57.0134 131.42 53.0085 131.224 48.6474C131.066 46.8377 127.789 47.9998 127.79 49.8259ZM134.506 58.44C132.638 59.3931 131.122 60.7048 130.092 62.2601C128.926 60.804 127.299 59.6347 125.353 58.8542C127.221 57.9012 128.737 56.5895 129.767 55.0339C130.933 56.4901 132.56 57.6596 134.506 58.44Z" fill="#FFDD65"/>
<g filter="url(#filter2_i_97_459)">
<path d="M128.626 49.1023C128.822 53.4634 124.955 56.8101 119.431 57.0601C117.137 57.2245 117.243 59.8476 119.554 59.8073C125.078 59.5573 129.23 62.541 129.426 66.902C129.46 67.6604 130.267 68.2403 131.228 68.1968C132.188 68.1533 132.94 67.5029 132.906 66.7445C132.71 62.3835 136.577 59.0369 142.101 58.787C143.062 58.7435 143.813 58.0931 143.779 57.3346C143.745 56.5762 142.938 55.9963 141.978 56.0398C136.454 56.2898 132.302 53.306 132.106 48.9448C131.948 47.1352 128.626 47.2761 128.626 49.1023ZM135.343 57.7164C133.474 58.6694 131.959 59.9811 130.928 61.5365C129.763 60.0802 128.136 58.911 126.189 58.1306C128.058 57.1776 129.573 55.8658 130.604 54.3103C131.769 55.7665 133.396 56.936 135.343 57.7164Z" fill="#DF8D12"/>
</g>
<path d="M127.581 64.2457C127.581 64.2457 126.606 61.8892 123.091 61.0194" stroke="white" stroke-linecap="round" stroke-linejoin="round"/>
<path d="M123.506 82.4833C123.506 82.4833 132.947 85.1907 146.435 79.0992" stroke="white" stroke-linecap="round" stroke-linejoin="round"/>
</g>
<path d="M128.901 98.7275C128.901 98.7275 138.342 101.435 151.83 95.3433" stroke="white" stroke-linecap="round" stroke-linejoin="round"/>
<defs>
<filter id="filter0_i_97_459" x="34.931" y="72.1055" width="17.8116" height="24.21" filterUnits="userSpaceOnUse" color-interpolation-filters="sRGB">
<feFlood flood-opacity="0" result="BackgroundImageFix"/>
<feBlend mode="normal" in="SourceGraphic" in2="BackgroundImageFix" result="shape"/>
<feColorMatrix in="SourceAlpha" type="matrix" values="0 0 0 0 0 0 0 0 0 0 0 0 0 0 0 0 0 0 127 0" result="hardAlpha"/>
<feOffset dy="4"/>
<feGaussianBlur stdDeviation="2"/>
<feComposite in2="hardAlpha" operator="arithmetic" k2="-1" k3="1"/>
<feColorMatrix type="matrix" values="0 0 0 0 0.356863 0 0 0 0 0.2 0 0 0 0 0.0117647 0 0 0 0.05 0"/>
<feBlend mode="normal" in2="shape" result="effect1_innerShadow_97_459"/>
</filter>
<filter id="filter1_i_97_459" x="66.0763" y="17.9707" width="26.1637" height="25.0889" filterUnits="userSpaceOnUse" color-interpolation-filters="sRGB">
<feFlood flood-opacity="0" result="BackgroundImageFix"/>
<feBlend mode="normal" in="SourceGraphic" in2="BackgroundImageFix" result="shape"/>
<feColorMatrix in="SourceAlpha" type="matrix" values="0 0 0 0 0 0 0 0 0 0 0 0 0 0 0 0 0 0 127 0" result="hardAlpha"/>
<feOffset dy="4"/>
<feGaussianBlur stdDeviation="2"/>
<feComposite in2="hardAlpha" operator="arithmetic" k2="-1" k3="1"/>
<feColorMatrix type="matrix" values="0 0 0 0 0.356863 0 0 0 0 0.2 0 0 0 0 0.0117647 0 0 0 0.05 0"/>
<feBlend mode="normal" in2="shape" result="effect1_innerShadow_97_459"/>
</filter>
<filter id="filter2_i_97_459" x="117.764" y="47.6582" width="26.0161" height="24.541" filterUnits="userSpaceOnUse" color-interpolation-filters="sRGB">
<feFlood flood-opacity="0" result="BackgroundImageFix"/>
<feBlend mode="normal" in="SourceGraphic" in2="BackgroundImageFix" result="shape"/>
<feColorMatrix in="SourceAlpha" type="matrix" values="0 0 0 0 0 0 0 0 0 0 0 0 0 0 0 0 0 0 127 0" result="hardAlpha"/>
<feOffset dy="4"/>
<feGaussianBlur stdDeviation="2"/>
<feComposite in2="hardAlpha" operator="arithmetic" k2="-1" k3="1"/>
<feColorMatrix type="matrix" values="0 0 0 0 0.356863 0 0 0 0 0.2 0 0 0 0 0.0117647 0 0 0 0.05 0"/>
<feBlend mode="normal" in2="shape" result="effect1_innerShadow_97_459"/>
</filter>
<linearGradient id="paint0_linear_97_459" x1="83.7053" y1="66.6564" x2="137.573" y2="82.5581" gradientUnits="userSpaceOnUse">
<stop offset="0.2" stop-color="#794D0A"/>
<stop offset="0.46" stop-color="#DF8D12"/>
<stop offset="0.55331" stop-color="#FFC979"/>
<stop offset="1" stop-color="#FFAD32"/>
</linearGradient>
<linearGradient id="paint1_linear_97_459" x1="80.4581" y1="52.6434" x2="134.329" y2="68.5456" gradientUnits="userSpaceOnUse">
<stop offset="0.2" stop-color="#794D0A"/>
<stop offset="0.46" stop-color="#DF8D12"/>
<stop offset="0.55331" stop-color="#FFC979"/>
<stop offset="1" stop-color="#FFAD32"/>
</linearGradient>
<linearGradient id="paint2_linear_97_459" x1="83.7053" y1="38.4992" x2="137.573" y2="54.4009" gradientUnits="userSpaceOnUse">
<stop offset="0.2" stop-color="#794D0A"/>
<stop offset="0.46" stop-color="#DF8D12"/>
<stop offset="0.55331" stop-color="#FFC979"/>
<stop offset="1" stop-color="#FFAD32"/>
</linearGradient>
<linearGradient id="paint3_linear_97_459" x1="80.4581" y1="24.4885" x2="134.328" y2="40.3915" gradientUnits="userSpaceOnUse">
<stop offset="0.2" stop-color="#794D0A"/>
<stop offset="0.46" stop-color="#DF8D12"/>
<stop offset="0.55331" stop-color="#FFC979"/>
<stop offset="1" stop-color="#FFAD32"/>
</linearGradient>
<linearGradient id="paint4_linear_97_459" x1="47.5939" y1="38.4339" x2="82.8783" y2="38.4339" gradientUnits="userSpaceOnUse">
<stop stop-color="#FF9900"/>
<stop offset="1" stop-color="#C67700"/>
</linearGradient>
<linearGradient id="paint5_linear_97_459" x1="136.696" y1="71.1209" x2="190.567" y2="87.0231" gradientUnits="userSpaceOnUse">
<stop offset="0.2" stop-color="#794D0A"/>
<stop offset="0.46" stop-color="#DF8D12"/>
<stop offset="0.55331" stop-color="#FFC979"/>
<stop offset="1" stop-color="#FFAD32"/>
</linearGradient>
<linearGradient id="paint6_linear_97_459" x1="103.832" y1="85.0672" x2="139.117" y2="85.0672" gradientUnits="userSpaceOnUse">
<stop stop-color="#FF9900"/>
<stop offset="1" stop-color="#C67700"/>
</linearGradient>
<linearGradient id="paint7_linear_97_459" x1="132.006" y1="54.9992" x2="185.874" y2="70.9009" gradientUnits="userSpaceOnUse">
<stop offset="0.2" stop-color="#794D0A"/>
<stop offset="0.46" stop-color="#DF8D12"/>
<stop offset="0.55331" stop-color="#FFC979"/>
<stop offset="1" stop-color="#FFAD32"/>
</linearGradient>
<linearGradient id="paint8_linear_97_459" x1="99.1434" y1="68.9446" x2="134.428" y2="68.9446" gradientUnits="userSpaceOnUse">
<stop stop-color="#FF9900"/>
<stop offset="1" stop-color="#C67700"/>
</linearGradient>
<linearGradient id="paint9_linear_97_459" x1="72.7117" y1="50.5943" x2="35.9886" y2="113.682" gradientUnits="userSpaceOnUse">
<stop offset="0.2" stop-color="#794D0A"/>
<stop offset="0.46" stop-color="#DF8D12"/>
<stop offset="0.55331" stop-color="#FFC979"/>
<stop offset="1" stop-color="#FFAD32"/>
</linearGradient>
<linearGradient id="paint10_linear_97_459" x1="23.5017" y1="94.2805" x2="71.3685" y2="94.2805" gradientUnits="userSpaceOnUse">
<stop stop-color="#FF9900"/>
<stop offset="1" stop-color="#C67700"/>
</linearGradient>
<linearGradient id="paint11_linear_97_459" x1="62.6436" y1="60.7222" x2="25.2113" y2="103.676" gradientUnits="userSpaceOnUse">
<stop stop-color="#FFB423"/>
<stop offset="1" stop-color="#FFCC00"/>
</linearGradient>
<linearGradient id="paint12_linear_97_459" x1="24.6152" y1="87.6252" x2="74.3496" y2="78.3109" gradientUnits="userSpaceOnUse">
<stop stop-color="#FFCF23"/>
<stop offset="1" stop-color="#FFEA00"/>
</linearGradient>
<linearGradient id="paint13_linear_97_459" x1="107.951" y1="27.3713" x2="50.4956" y2="29.9526" gradientUnits="userSpaceOnUse">
<stop stop-color="#FFB423"/>
<stop offset="1" stop-color="#FFCC00"/>
</linearGradient>
<linearGradient id="paint14_linear_97_459" x1="61.7961" y1="18.1389" x2="103.404" y2="48.0442" gradientUnits="userSpaceOnUse">
<stop stop-color="#FFCF23"/>
<stop offset="1" stop-color="#FFEA00"/>
</linearGradient>
<linearGradient id="paint15_linear_97_459" x1="159.403" y1="56.7874" x2="102.271" y2="59.3541" gradientUnits="userSpaceOnUse">
<stop stop-color="#FFB423"/>
<stop offset="1" stop-color="#FFCC00"/>
</linearGradient>
<linearGradient id="paint16_linear_97_459" x1="113.518" y1="47.8375" x2="154.261" y2="77.7483" gradientUnits="userSpaceOnUse">
<stop stop-color="#FFCF23"/>
<stop offset="1" stop-color="#FFEA00"/>
</linearGradient>
<clipPath id="clip0_97_459">
<rect width="54.8321" height="69.1813" fill="white" transform="matrix(0.753897 0.656992 -0.654279 0.756253 46.0306 39.373)"/>
</clipPath>
<clipPath id="clip1_97_459">
<rect width="55.5787" height="69.8348" fill="white" transform="matrix(0.044881 0.998992 -0.998978 0.0452073 111.968 0.268555)"/>
</clipPath>
<clipPath id="clip2_97_459">
<rect width="54.1343" height="69.4412" fill="white" transform="matrix(0.044881 0.998992 -0.998978 0.0452073 163.422 30.3848)"/>
</clipPath>
</defs>
</svg>
